<svg width="128" height="128" viewBox="0 0 128 128" fill="none" xmlns="http://www.w3.org/2000/svg">
  <rect width="128" height="128" rx="24" fill="#24292F"/>
  <path d="M64 18C38.595 18 18 38.595 18 64C18 84.3225 31.185 101.565 49.3875 107.618C51.6875 108.045 52.53 106.62 52.53 105.405C52.53 104.325 52.4925 101.453 52.47 97.6575C40 100.222 37.1925 93.3 36.1875 90.4875C35.6175 89.0325 34.185 86.4 32.925 85.6875C31.875 85.125 30.375 83.73 32.9025 83.6925C35.2575 83.655 36.9375 85.86 37.5 86.76C40.185 91.29 44.505 90.0075 46.215 89.235C46.485 87.2925 47.265 85.9875 48.1275 85.23C37.56 84.03 26.5125 79.935 26.5125 61.68C26.5125 56.475 28.3725 52.17 31.41 48.795C30.9225 47.5875 29.28 42.7275 31.8825 36.1425C31.8825 36.1425 35.88 34.86 44.97 41.0025C48.7725 39.945 52.8225 39.42 56.85 39.405C60.8775 39.42 64.9275 39.945 68.73 41.0025C77.82 34.845 81.8175 36.1425 81.8175 36.1425C84.42 42.7275 82.7775 47.5875 82.29 48.795C85.3275 52.17 87.1875 56.46 87.1875 61.68C87.1875 79.9725 76.1025 84.015 65.5125 85.2C67.2225 86.67 68.7375 89.55 68.7375 93.975C68.7375 100.312 68.6775 105.42 68.6775 106.972C68.6775 108.187 69.525 109.627 71.85 109.185C90.03 103.11 103.185 85.8675 103.185 65.4375C103.185 44.0325 85.9425 26.79 64.5375 26.79C64.3575 26.79 64.185 26.79 64 26.798V18Z" fill="white"/>
  <circle cx="95" cy="95" r="28" fill="#4ADE80" stroke="#24292F" stroke-width="6"/>
  <path d="M85 95H105M88 102L95 88L102 102" stroke="#24292F" stroke-width="4" stroke-linecap="round" stroke-linejoin="round"/>
</svg>
